# Blender 3.5.0
# www.blender.org
mtllib alaizq.mtl
o Linux_Penguin__Torso_
v -1.892785 17.389000 -3.220701
v -1.183285 17.033001 -3.118301
v -1.305785 17.025700 -1.553001
v -2.023485 17.376301 -1.542601
v -1.640485 17.524799 -4.461202
v -0.931985 17.209400 -4.275402
v -1.406285 17.881701 1.565999
v -0.668085 17.709000 1.346699
v -0.425285 18.350599 1.122799
v -1.205385 18.366699 1.325999
v -1.640485 17.524799 1.332199
v -0.931985 17.209400 1.128499
v -1.052785 18.886499 -4.731502
v -0.236885 18.952700 -4.527502
v -0.425285 18.350599 -4.560601
v -1.205385 18.366699 -4.767002
v -1.010585 19.284300 -4.364501
v -0.166585 19.386499 -4.185202
v -0.236885 18.952700 0.912799
v -0.166585 19.386499 0.434499
v -1.010585 19.284300 0.588199
v -1.052785 18.886499 1.100899
v -3.029885 18.363600 1.267099
v -2.895085 18.837099 1.046299
v -2.863485 19.207199 0.543399
v -5.122985 19.172701 0.388199
v -5.153385 18.815399 0.857699
v -5.283585 18.359800 1.063399
v -3.666885 17.526400 -3.192601
v -3.424385 17.644899 -4.409401
v -3.794885 17.512600 -1.546601
v -6.022385 17.550301 -1.554201
v -5.898685 17.563601 -3.089602
v -5.664585 17.676300 -4.225902
v -3.029885 18.363600 -4.709301
v -1.406285 17.881701 -4.826801
v -3.209185 17.945101 -4.768002
v -5.456785 17.960899 -4.560802
v -5.283585 18.359800 -4.506102
v -3.099885 19.303900 -1.909401
v -1.248685 19.392500 -1.912501
v -1.140585 19.402901 -3.310302
v -2.994085 19.315300 -3.280501
v -2.863485 19.207199 -4.314601
v -5.122985 19.172701 -4.139001
v -5.249085 19.277100 -3.177701
v -5.351285 19.266100 -1.901501
v -0.668085 17.709000 -4.616401
v -1.892785 17.389000 0.135499
v -1.183285 17.033001 0.012299
v -0.379485 19.517000 -1.898001
v -1.140585 19.402901 -0.514601
v -0.278185 19.523001 -0.594101
v -0.278185 19.523001 -3.201901
v -7.315985 19.305300 -0.723001
v -7.186685 19.198299 0.210899
v -5.249085 19.277100 -0.622201
v -7.420685 19.294001 -1.901201
v -9.517385 19.283501 -1.889301
v -9.417685 19.294300 -0.866401
v -9.294785 19.192400 -0.052701
v -8.108585 17.605301 -1.554401
v -5.898685 17.563601 -0.021801
v -7.981785 17.618999 -0.153501
v -5.664585 17.676300 1.069799
v -7.741885 17.725700 0.840799
v -9.822985 17.814501 0.495899
v -10.051285 17.716200 -0.358201
v -10.171885 17.703199 -1.566001
v -7.186685 19.198299 -3.941501
v -5.153385 18.815399 -4.473701
v -7.217885 18.832001 -4.246001
v -7.351385 18.373800 -4.275802
v -9.451385 18.411301 -3.931101
v -9.324486 18.843901 -3.905301
v -9.294785 19.192400 -3.643901
v -5.456785 17.960899 1.282899
v -7.528885 17.991199 1.033799
v -7.351385 18.373800 0.832599
v -9.451385 18.411301 0.486899
v -9.620384 18.057199 0.660999
v -3.209185 17.945101 1.502499
v -3.424385 17.644899 1.273099
v -2.895085 18.837099 -4.674501
v -3.666885 17.526400 0.099299
v -2.994085 19.315300 -0.538301
v -11.708986 18.808100 -0.183801
v -11.802185 18.477900 -0.061001
v -9.324486 18.843901 0.323699
v -11.687185 19.063801 -0.466601
v -13.116985 18.923700 -0.816901
v -13.620285 18.761200 -0.756001
v -13.678686 18.536600 -0.674601
v -12.074886 17.963800 -3.214801
v -9.822985 17.814501 -3.704801
v -10.051285 17.716200 -2.791801
v -12.242386 17.879101 -2.529101
v -12.330885 17.869499 -1.607701
v -13.967186 18.081800 -1.657601
v -13.913086 18.087700 -2.300102
v -13.376385 18.109900 -2.782801
v -11.926086 18.180000 -3.417202
v -11.802185 18.477900 -3.384601
v -9.620384 18.057199 -3.974401
v -13.756386 18.291201 -2.789301
v -13.678686 18.536600 -2.772501
v -11.777386 19.138500 -2.602501
v -11.850586 19.130600 -1.846201
v -9.417685 19.294300 -2.893502
v -11.687185 19.063801 -3.168201
v -13.116985 18.923700 -2.763301
v -13.654186 18.924900 -2.337101
v -13.699785 18.920000 -1.794201
v -7.315985 19.305300 -3.067001
v -7.528885 17.991199 -4.325902
v -7.741885 17.725700 -4.016401
v -7.981785 17.618999 -2.967301
v -7.217885 18.832001 0.643799
v -14.307186 18.740200 -2.240402
v -14.344486 18.736200 -1.755301
v -13.620285 18.761200 -2.764201
v -14.356186 18.550600 -2.230501
v -14.395185 18.546400 -1.723701
v -14.462385 18.317900 -1.693801
v -14.421286 18.322300 -2.225502
v -13.654186 18.924900 -1.248201
v -14.307186 18.740200 -1.270201
v -14.356186 18.550600 -1.216901
v -14.421286 18.322300 -1.162001
v -13.913086 18.087700 -1.018201
v -13.376385 18.109900 -0.539301
v -13.756386 18.291201 -0.588201
v -11.926086 18.180000 0.069899
v -12.074886 17.963800 -0.054701
v -11.708986 18.808100 -3.365301
v -12.242386 17.879101 -0.698401
v -11.777386 19.138500 -1.077501
vn -0.2612 -0.9602 -0.0986
vn -0.4436 -0.8867 -0.1302
vn -0.4544 -0.8908 -0.0004
vn -0.2694 -0.9630 -0.0000
vn -0.1690 -0.8497 -0.4994
vn -0.2232 -0.8326 -0.5070
vn 0.0709 -0.0493 0.9963
vn 0.2597 -0.1061 0.9598
vn 0.2488 0.2743 0.9289
vn 0.1206 0.3833 0.9157
vn -0.1419 -0.7874 0.5998
vn -0.1800 -0.7942 0.5804
vn 0.1016 0.3565 -0.9287
vn 0.1753 0.3989 -0.9001
vn 0.2547 -0.0176 -0.9669
vn 0.1193 0.0491 -0.9916
vn 0.0032 0.8716 -0.4902
vn 0.0017 0.8927 -0.4507
vn 0.1194 0.5966 0.7936
vn -0.0356 0.9237 0.3814
vn -0.0129 0.9152 0.4028
vn 0.0839 0.5771 0.8124
vn -0.0476 0.4706 0.8811
vn -0.0442 0.6357 0.7706
vn -0.0291 0.9313 0.3631
vn -0.0191 0.9286 0.3706
vn -0.0633 0.6309 0.7733
vn -0.0781 0.4701 0.8791
vn -0.0635 -0.9962 -0.0597
vn -0.0744 -0.9072 -0.4141
vn -0.0613 -0.9981 -0.0001
vn -0.0379 -0.9993 -0.0001
vn -0.0410 -0.9975 -0.0580
vn -0.0700 -0.9092 -0.4105
vn -0.0566 0.1259 -0.9904
vn 0.0303 -0.2899 -0.9566
vn -0.0736 -0.3260 -0.9425
vn -0.1040 -0.3180 -0.9424
vn -0.0962 0.1393 -0.9856
vn -0.0155 0.9999 -0.0000
vn -0.0769 0.9970 -0.0000
vn -0.0732 0.9953 -0.0640
vn -0.0170 0.9985 -0.0523
vn -0.0345 0.8964 -0.4419
vn -0.0269 0.8937 -0.4478
vn 0.0115 0.9987 -0.0502
vn 0.0150 0.9999 0.0001
vn 0.1907 -0.3042 -0.9333
vn -0.2588 -0.9605 0.1021
vn -0.4401 -0.8882 0.1322
vn -0.1246 0.9922 -0.0000
vn -0.0710 0.9954 0.0636
vn -0.1152 0.9905 0.0747
vn -0.1071 0.9918 -0.0690
vn 0.0148 0.9985 0.0527
vn -0.0250 0.9167 0.3989
vn 0.0122 0.9988 0.0477
vn 0.0196 0.9998 0.0002
vn -0.0211 0.9998 0.0001
vn -0.0253 0.9977 0.0625
vn -0.0700 0.9049 0.4199
vn -0.0536 -0.9986 -0.0002
vn -0.0417 -0.9973 0.0603
vn -0.0593 -0.9960 0.0673
vn -0.0833 -0.8504 0.5196
vn -0.1204 -0.8301 0.5445
vn -0.1834 -0.7908 0.5840
vn -0.0870 -0.9932 0.0772
vn -0.0789 -0.9969 0.0001
vn -0.0427 0.8772 -0.4783
vn -0.0804 0.4108 -0.9082
vn -0.1133 0.3890 -0.9142
vn -0.1297 0.1473 -0.9806
vn -0.1849 0.1622 -0.9693
vn -0.1672 0.3740 -0.9122
vn -0.0925 0.8596 -0.5026
vn -0.1049 -0.0262 0.9941
vn -0.1411 -0.0072 0.9900
vn -0.1090 0.4587 0.8819
vn -0.1577 0.4479 0.8801
vn -0.2036 0.0346 0.9784
vn -0.0712 -0.0377 0.9967
vn -0.0833 -0.8493 0.5213
vn -0.0535 0.4135 -0.9089
vn -0.0638 -0.9961 0.0617
vn -0.0170 0.9986 0.0501
vn -0.2049 0.5815 0.7873
vn -0.2226 0.4367 0.8716
vn -0.1349 0.5771 0.8055
vn -0.1378 0.8999 0.4138
vn -0.1639 0.9146 0.3697
vn -0.3474 0.6831 0.6425
vn -0.4165 0.4184 0.8072
vn -0.2277 -0.8277 -0.5128
vn -0.1514 -0.8748 -0.4602
vn -0.0858 -0.9937 -0.0723
vn -0.1316 -0.9872 -0.0903
vn -0.1196 -0.9928 0.0003
vn -0.3046 -0.9525 0.0009
vn -0.3378 -0.9093 -0.2432
vn -0.2749 -0.8430 -0.4623
vn -0.2836 -0.1855 -0.9408
vn -0.2566 0.1724 -0.9510
vn -0.2036 -0.2542 -0.9455
vn -0.5221 -0.3164 -0.7920
vn -0.4626 0.1838 -0.8673
vn -0.0853 0.9936 -0.0745
vn -0.0751 0.9972 -0.0000
vn -0.0282 0.9973 -0.0680
vn -0.1609 0.8562 -0.4910
vn -0.1946 0.8976 -0.3954
vn -0.2178 0.9592 -0.1800
vn -0.1830 0.9831 -0.0002
vn 0.0147 0.9983 -0.0561
vn -0.1419 -0.2971 -0.9442
vn -0.1002 -0.8983 -0.4278
vn -0.0573 -0.9964 -0.0626
vn -0.0859 0.6028 0.7933
vn -0.6862 0.6168 -0.3856
vn -0.7150 0.6991 -0.0041
vn -0.4024 0.5546 -0.7284
vn -0.8555 0.2341 -0.4619
vn -0.9584 0.2856 0.0006
vn -0.9231 -0.3845 0.0027
vn -0.8558 -0.3427 -0.3876
vn -0.2000 0.9679 0.1523
vn -0.6618 0.6797 0.3164
vn -0.8262 0.3584 0.4347
vn -0.8636 -0.2919 0.4111
vn -0.3681 -0.8868 0.2795
vn -0.3218 -0.7438 0.5858
vn -0.5368 -0.1813 0.8240
vn -0.2775 0.0756 0.9577
vn -0.2743 -0.7301 0.6259
vn -0.2383 0.3823 -0.8928
vn -0.1324 -0.9869 0.0921
vn -0.0812 0.9944 0.0683
vt 0.294900 0.717100
vt 0.304700 0.707300
vt 0.325700 0.728400
vt 0.315400 0.738900
vt 0.279100 0.703000
vt 0.288100 0.691500
vt 0.361000 0.791900
vt 0.379000 0.786500
vt 0.384700 0.803700
vt 0.366700 0.802700
vt 0.354800 0.783800
vt 0.372100 0.770700
vt 0.340300 0.912600
vt 0.350400 0.916000
vt 0.344800 0.921700
vt 0.267900 0.686100
vt 0.268000 0.694400
vt 0.336000 0.917600
vt 0.343900 0.906700
vt 0.355300 0.910100
vt 0.388500 0.819000
vt 0.388600 0.834600
vt 0.370500 0.828000
vt 0.370200 0.814600
vt 0.331700 0.807300
vt 0.335000 0.815900
vt 0.335800 0.826500
vt 0.300900 0.829200
vt 0.299900 0.821000
vt 0.297100 0.814300
vt 0.277200 0.738600
vt 0.266400 0.724800
vt 0.292700 0.758200
vt 0.267300 0.777100
vt 0.256000 0.760600
vt 0.248200 0.748000
vt 0.259400 0.714400
vt 0.315400 0.909000
vt 0.273100 0.698100
vt 0.262900 0.719000
vt 0.245900 0.742300
vt 0.288800 0.899800
vt 0.243100 0.737600
vt 0.327000 0.864600
vt 0.354800 0.871700
vt 0.348500 0.892500
vt 0.323800 0.884000
vt 0.321600 0.897900
vt 0.293900 0.889000
vt 0.294800 0.876600
vt 0.296000 0.860100
vt 0.276800 0.687600
vt 0.338200 0.762700
vt 0.349800 0.750400
vt 0.368500 0.876800
vt 0.364000 0.848900
vt 0.379300 0.855300
vt 0.360900 0.896500
vt 0.272700 0.843600
vt 0.274400 0.832500
vt 0.298900 0.843200
vt 0.270300 0.857400
vt 0.247000 0.854500
vt 0.249400 0.843900
vt 0.251200 0.835500
vt 0.246600 0.792000
vt 0.279800 0.793100
vt 0.256800 0.804400
vt 0.289200 0.804900
vt 0.264600 0.813100
vt 0.243700 0.820300
vt 0.237300 0.814300
vt 0.228900 0.805400
vt 0.269500 0.881900
vt 0.292100 0.894900
vt 0.267800 0.887400
vt 0.264600 0.892200
vt 0.227000 0.757600
vt 0.211900 0.778000
vt 0.240800 0.882900
vt 0.244200 0.878800
vt 0.246000 0.874100
vt 0.293600 0.808500
vt 0.268200 0.815800
vt 0.271100 0.820300
vt 0.248800 0.825900
vt 0.246600 0.822200
vt 0.327200 0.799700
vt 0.321900 0.794700
vt 0.319100 0.904000
vt 0.309600 0.778800
vt 0.332200 0.844100
vt 0.228300 0.834100
vt 0.227300 0.831100
vt 0.250700 0.830300
vt 0.228300 0.837400
vt 0.216300 0.837200
vt 0.213000 0.835600
vt 0.212600 0.833900
vt 0.203600 0.807000
vt 0.216200 0.786100
vt 0.221400 0.795000
vt 0.207900 0.812400
vt 0.213600 0.818600
vt 0.205100 0.828900
vt 0.200900 0.826000
vt 0.199700 0.819700
vt 0.201700 0.804200
vt 0.198900 0.802000
vt 0.216600 0.868700
vt 0.214500 0.781700
vt 0.196800 0.822800
vt 0.194200 0.822300
vt 0.201000 0.852300
vt 0.222500 0.857000
vt 0.223900 0.849500
vt 0.246300 0.865500
vt 0.221500 0.863000
vt 0.209200 0.853300
vt 0.206100 0.847200
vt 0.208300 0.842600
vt 0.269700 0.871300
vt 0.229500 0.762000
vt 0.231300 0.767200
vt 0.237500 0.778300
vt 0.273600 0.825800
vt 0.200900 0.842700
vt 0.203400 0.838100
vt 0.203700 0.851400
vt 0.198500 0.842000
vt 0.196700 0.831900
vt 0.202000 0.835900
vt 0.203100 0.833200
vt 0.199100 0.830600
vt 0.211300 0.839000
vt 0.207200 0.836200
vt 0.207100 0.834800
vt 0.207100 0.833100
vt 0.209400 0.830600
vt 0.214200 0.830400
vt 0.212200 0.832200
vt 0.226000 0.828500
vt 0.224100 0.827000
vt 0.219600 0.866100
vt 0.219600 0.823500
vt 0.226400 0.842700
s 1
usemtl Linux_Penguin.002
f 1/1/1 2/2/2 3/3/3
f 3/3/3 4/4/4 1/1/1
f 1/1/1 5/5/5 6/6/6
f 6/6/6 2/2/2 1/1/1
f 7/7/7 8/8/8 9/9/9
f 9/9/9 10/10/10 7/7/7
f 7/7/7 11/11/11 12/12/12
f 12/12/12 8/8/8 7/7/7
f 13/13/13 14/14/14 15/15/15
f 15/15/15 16/18/16 13/13/13
f 17/19/17 18/20/18 14/14/14
f 14/14/14 13/13/13 17/19/17
f 19/21/19 20/22/20 21/23/21
f 21/23/21 22/24/22 19/21/19
f 9/9/9 19/21/19 22/24/22
f 22/24/22 10/10/10 9/9/9
f 23/25/23 10/10/10 22/24/22
f 22/24/22 24/26/24 23/25/23
f 24/26/24 22/24/22 21/23/21
f 21/23/21 25/27/25 24/26/24
f 24/26/24 25/27/25 26/28/26
f 26/28/26 27/29/27 24/26/24
f 27/29/27 28/30/28 23/25/23
f 23/25/23 24/26/24 27/29/27
f 1/1/1 29/31/29 30/32/30
f 30/32/30 5/5/5 1/1/1
f 29/31/29 1/1/1 4/4/4
f 4/4/4 31/33/31 29/31/29
f 29/31/29 31/33/31 32/34/32
f 32/34/32 33/35/33 29/31/29
f 34/36/34 30/32/30 29/31/29
f 29/31/29 33/35/33 34/36/34
f 35/37/35 16/17/16 36/39/36
f 36/39/36 37/40/37 35/37/35
f 36/39/36 5/5/5 30/32/30
f 30/32/30 37/40/37 36/39/36
f 30/32/30 34/36/34 38/41/38
f 38/41/38 37/40/37 30/32/30
f 37/40/37 38/41/38 39/43/39
f 39/43/39 35/37/35 37/40/37
f 40/44/40 41/45/41 42/46/42
f 42/46/42 43/47/43 40/44/40
f 43/47/43 42/46/42 17/19/17
f 17/19/17 44/48/44 43/47/43
f 44/48/44 45/49/45 46/50/46
f 46/50/46 43/47/43 44/48/44
f 46/50/46 47/51/47 40/44/40
f 40/44/40 43/47/43 46/50/46
f 6/6/6 5/5/5 36/39/36
f 36/39/36 48/52/48 6/6/6
f 15/16/15 48/52/48 36/39/36
f 36/39/36 16/17/16 15/16/15
f 12/12/12 11/11/11 49/53/49
f 49/53/49 50/54/50 12/12/12
f 49/53/49 4/4/4 3/3/3
f 3/3/3 50/54/50 49/53/49
f 51/55/51 41/45/41 52/56/52
f 52/56/52 53/57/53 51/55/51
f 20/22/20 53/57/53 52/56/52
f 52/56/52 21/23/21 20/22/20
f 54/58/54 18/20/18 17/19/17
f 17/19/17 42/46/42 54/58/54
f 42/46/42 41/45/41 51/55/51
f 51/55/51 54/58/54 42/46/42
f 55/59/55 56/60/56 26/28/26
f 26/28/26 57/61/57 55/59/55
f 57/61/57 47/51/47 58/62/58
f 58/62/58 55/59/55 57/61/57
f 55/59/55 58/62/58 59/63/59
f 59/63/59 60/64/60 55/59/55
f 55/59/55 60/64/60 61/65/61
f 61/65/61 56/60/56 55/59/55
f 62/66/62 32/34/32 63/67/63
f 63/67/63 64/68/64 62/66/62
f 63/67/63 65/69/65 66/70/66
f 66/70/66 64/68/64 63/67/63
f 64/68/64 66/70/66 67/71/67
f 67/71/67 68/72/68 64/68/64
f 64/68/64 68/72/68 69/73/69
f 69/73/69 62/66/62 64/68/64
f 70/74/70 45/49/45 71/75/71
f 71/75/71 72/76/72 70/74/70
f 72/76/72 71/75/71 39/42/39
f 39/42/39 73/77/73 72/76/72
f 73/77/73 74/80/74 75/81/75
f 75/81/75 72/76/72 73/77/73
f 75/81/75 76/82/76 70/74/70
f 70/74/70 72/76/72 75/81/75
f 66/70/66 65/69/65 77/83/77
f 77/83/77 78/84/78 66/70/66
f 77/83/77 28/30/28 79/85/79
f 79/85/79 78/84/78 77/83/77
f 78/84/78 79/85/79 80/86/80
f 80/86/80 81/87/81 78/84/78
f 78/84/78 81/87/81 67/71/67
f 67/71/67 66/70/66 78/84/78
f 7/7/7 82/88/82 83/89/83
f 83/89/83 11/11/11 7/7/7
f 82/88/82 7/7/7 10/10/10
f 10/10/10 23/25/23 82/88/82
f 23/25/23 28/30/28 77/83/77
f 77/83/77 82/88/82 23/25/23
f 77/83/77 65/69/65 83/89/83
f 83/89/83 82/88/82 77/83/77
f 84/90/84 44/48/44 17/19/17
f 17/19/17 13/13/13 84/90/84
f 13/13/13 16/18/16 35/38/35
f 35/38/35 84/90/84 13/13/13
f 84/90/84 35/38/35 39/42/39
f 39/42/39 71/75/71 84/90/84
f 84/90/84 71/75/71 45/49/45
f 45/49/45 44/48/44 84/90/84
f 31/33/31 4/4/4 49/53/49
f 49/53/49 85/91/85 31/33/31
f 49/53/49 11/11/11 83/89/83
f 83/89/83 85/91/85 49/53/49
f 83/89/83 65/69/65 63/67/63
f 63/67/63 85/91/85 83/89/83
f 85/91/85 63/67/63 32/34/32
f 32/34/32 31/33/31 85/91/85
f 86/92/86 25/27/25 21/23/21
f 21/23/21 52/56/52 86/92/86
f 40/44/40 86/92/86 52/56/52
f 52/56/52 41/45/41 40/44/40
f 40/44/40 47/51/47 57/61/57
f 57/61/57 86/92/86 40/44/40
f 86/92/86 57/61/57 26/28/26
f 26/28/26 25/27/25 86/92/86
f 87/93/87 88/94/88 80/86/80
f 80/86/80 89/95/89 87/93/87
f 87/93/87 89/95/89 61/65/61
f 61/65/61 90/96/90 87/93/87
f 87/93/87 90/96/90 91/97/91
f 91/97/91 92/98/92 87/93/87
f 87/93/87 92/98/92 93/99/93
f 93/99/93 88/94/88 87/93/87
f 94/100/94 95/101/95 96/102/96
f 96/102/96 97/103/97 94/100/94
f 97/103/97 96/102/96 69/73/69
f 69/73/69 98/104/98 97/103/97
f 98/104/98 99/105/99 100/106/100
f 100/106/100 97/103/97 98/104/98
f 97/103/97 100/106/100 101/107/101
f 101/107/101 94/100/94 97/103/97
f 102/108/102 103/109/103 74/79/74
f 74/79/74 104/111/104 102/108/102
f 104/111/104 95/101/95 94/100/94
f 94/100/94 102/108/102 104/111/104
f 94/100/94 101/107/101 105/112/105
f 105/112/105 102/108/102 94/100/94
f 105/112/105 106/113/106 103/109/103
f 103/109/103 102/108/102 105/112/105
f 107/115/107 108/116/108 59/63/59
f 59/63/59 109/117/109 107/115/107
f 109/117/109 76/82/76 110/118/110
f 110/118/110 107/115/107 109/117/109
f 107/115/107 110/118/110 111/119/111
f 111/119/111 112/120/112 107/115/107
f 107/115/107 112/120/112 113/121/113
f 113/121/113 108/116/108 107/115/107
f 47/51/47 46/50/46 114/122/114
f 114/122/114 58/62/58 47/51/47
f 45/49/45 70/74/70 114/122/114
f 114/122/114 46/50/46 45/49/45
f 70/74/70 76/82/76 109/117/109
f 109/117/109 114/122/114 70/74/70
f 114/122/114 109/117/109 59/63/59
f 59/63/59 58/62/58 114/122/114
f 115/123/115 73/78/73 39/43/39
f 39/43/39 38/41/38 115/123/115
f 38/41/38 34/36/34 116/124/116
f 116/124/116 115/123/115 38/41/38
f 115/123/115 116/124/116 95/101/95
f 95/101/95 104/111/104 115/123/115
f 104/111/104 74/79/74 73/78/73
f 73/78/73 115/123/115 104/111/104
f 116/124/116 34/36/34 33/35/33
f 33/35/33 117/125/117 116/124/116
f 117/125/117 33/35/33 32/34/32
f 32/34/32 62/66/62 117/125/117
f 62/66/62 69/73/69 96/102/96
f 96/102/96 117/125/117 62/66/62
f 96/102/96 95/101/95 116/124/116
f 116/124/116 117/125/117 96/102/96
f 118/126/118 79/85/79 28/30/28
f 28/30/28 27/29/27 118/126/118
f 118/126/118 27/29/27 26/28/26
f 26/28/26 56/60/56 118/126/118
f 56/60/56 61/65/61 89/95/89
f 89/95/89 118/126/118 56/60/56
f 118/126/118 89/95/89 80/86/80
f 80/86/80 79/85/79 118/126/118
f 119/127/119 120/128/120 113/121/113
f 113/121/113 112/120/112 119/127/119
f 119/127/119 112/120/112 111/119/111
f 111/119/111 121/129/121 119/127/119
f 121/129/121 106/114/106 122/130/122
f 122/130/122 119/127/119 121/129/121
f 122/130/122 123/132/123 120/128/120
f 120/128/120 119/127/119 122/130/122
f 124/133/124 123/132/123 122/131/122
f 122/131/122 125/134/125 124/133/124
f 125/134/125 122/131/122 106/113/106
f 106/113/106 105/112/105 125/134/125
f 125/134/125 105/112/105 101/107/101
f 101/107/101 100/106/100 125/134/125
f 125/134/125 100/106/100 99/105/99
f 99/105/99 124/133/124 125/134/125
f 126/135/126 113/121/113 120/128/120
f 120/128/120 127/136/127 126/135/126
f 120/128/120 123/132/123 128/137/128
f 128/137/128 127/136/127 120/128/120
f 127/136/127 128/137/128 93/99/93
f 93/99/93 92/98/92 127/136/127
f 127/136/127 92/98/92 91/97/91
f 91/97/91 126/135/126 127/136/127
f 129/138/129 128/137/128 123/132/123
f 123/132/123 124/133/124 129/138/129
f 129/138/129 124/133/124 99/105/99
f 99/105/99 130/139/130 129/138/129
f 129/138/129 130/139/130 131/140/131
f 131/140/131 132/141/132 129/138/129
f 132/141/132 93/99/93 128/137/128
f 128/137/128 129/138/129 132/141/132
f 133/142/133 134/143/134 67/71/67
f 67/71/67 81/87/81 133/142/133
f 133/142/133 81/87/81 80/86/80
f 80/86/80 88/94/88 133/142/133
f 133/142/133 88/94/88 93/99/93
f 93/99/93 132/141/132 133/142/133
f 133/142/133 132/141/132 131/140/131
f 131/140/131 134/143/134 133/142/133
f 135/144/135 110/118/110 76/82/76
f 76/82/76 75/81/75 135/144/135
f 75/81/75 74/80/74 103/110/103
f 103/110/103 135/144/135 75/81/75
f 103/110/103 106/114/106 121/129/121
f 121/129/121 135/144/135 103/110/103
f 121/129/121 111/119/111 110/118/110
f 110/118/110 135/144/135 121/129/121
f 136/145/136 98/104/98 69/73/69
f 69/73/69 68/72/68 136/145/136
f 136/145/136 68/72/68 67/71/67
f 67/71/67 134/143/134 136/145/136
f 134/143/134 131/140/131 130/139/130
f 130/139/130 136/145/136 134/143/134
f 130/139/130 99/105/99 98/104/98
f 98/104/98 136/145/136 130/139/130
f 137/146/137 90/96/90 61/65/61
f 61/65/61 60/64/60 137/146/137
f 60/64/60 59/63/59 108/116/108
f 108/116/108 137/146/137 60/64/60
f 137/146/137 108/116/108 113/121/113
f 113/121/113 126/135/126 137/146/137
f 137/146/137 126/135/126 91/97/91
f 91/97/91 90/96/90 137/146/137
