# Blender 3.5.0
# www.blender.org
mtllib alader.mtl
o Linux_Penguin__Torso_.001
v 1.454624 17.033001 -3.118301
v 1.203323 17.209400 -4.275402
v 1.911824 17.524799 -4.461202
v 2.164124 17.389000 -3.220701
v 2.294824 17.376301 -1.542601
v 1.577124 17.025700 -1.553001
v 1.203323 17.209400 1.128499
v 1.911824 17.524799 1.332199
v 1.677624 17.881701 1.565999
v 0.939524 17.709000 1.346699
v 1.476724 18.366699 1.325999
v 0.696623 18.350599 1.122799
v 1.282023 19.284300 -4.364501
v 1.324224 18.886499 -4.731502
v 0.508224 18.952700 -4.527502
v 0.438024 19.386499 -4.185202
v 1.476724 18.366699 -4.767002
v 0.696623 18.350599 -4.560601
v 0.508224 18.952700 0.912799
v 1.324224 18.886499 1.100899
v 1.282023 19.284300 0.588199
v 0.438024 19.386499 0.434499
v 3.166423 18.837099 1.046299
v 3.301224 18.363600 1.267099
v 5.555023 18.359800 1.063399
v 5.424824 18.815399 0.857699
v 5.394323 19.172701 0.388199
v 3.134923 19.207199 0.543399
v 3.938224 17.526400 -3.192601
v 3.695824 17.644899 -4.409401
v 5.936024 17.676300 -4.225801
v 6.170123 17.563601 -3.089602
v 6.293723 17.550301 -1.554201
v 4.066223 17.512600 -1.546601
v 3.301224 18.363600 -4.709301
v 3.480624 17.945101 -4.768002
v 1.677624 17.881701 -4.826801
v 5.555023 18.359800 -4.506102
v 5.728224 17.960899 -4.560802
v 1.520023 19.392500 -1.912501
v 3.371324 19.303900 -1.909401
v 3.265423 19.315300 -3.280501
v 1.412024 19.402901 -3.310302
v 5.520424 19.277100 -3.177701
v 5.622623 19.266100 -1.901501
v 5.394323 19.172701 -4.139001
v 3.134923 19.207199 -4.314601
v 0.939524 17.709000 -4.616401
v 1.454624 17.033001 0.012299
v 2.164124 17.389000 0.135499
v 0.549623 19.523001 -0.594101
v 1.412024 19.402901 -0.514601
v 0.650824 19.516899 -1.898001
v 0.549623 19.523001 -3.201901
v 5.520424 19.277100 -0.622201
v 7.458023 19.198299 0.210899
v 7.587323 19.305300 -0.723001
v 9.566124 19.192400 -0.052701
v 9.689123 19.294300 -0.866401
v 9.788724 19.283501 -1.889301
v 7.692023 19.294001 -1.901201
v 8.379924 17.605301 -1.554401
v 8.253223 17.618999 -0.153501
v 6.170123 17.563601 -0.021801
v 10.443224 17.703199 -1.566001
v 10.322723 17.716200 -0.358201
v 10.094423 17.814501 0.495899
v 8.013224 17.725700 0.840799
v 5.936024 17.676300 1.069799
v 7.489324 18.832001 -4.246001
v 5.424824 18.815399 -4.473701
v 7.458023 19.198299 -3.941501
v 9.566124 19.192400 -3.643901
v 9.595823 18.843901 -3.905301
v 9.722823 18.411301 -3.931101
v 7.622724 18.373800 -4.275802
v 7.800223 17.991199 1.033799
v 5.728224 17.960899 1.282899
v 9.891724 18.057199 0.660999
v 9.722823 18.411301 0.486899
v 7.622724 18.373800 0.832599
v 3.480624 17.945101 1.502499
v 3.695824 17.644899 1.273099
v 3.166423 18.837099 -4.674501
v 3.938224 17.526400 0.099299
v 3.265423 19.315300 -0.538301
v 9.595823 18.843901 0.323699
v 12.073524 18.477900 -0.061001
v 11.980323 18.808100 -0.183801
v 13.950124 18.536600 -0.674601
v 13.891623 18.761200 -0.756001
v 13.388324 18.923700 -0.816901
v 11.958524 19.063801 -0.466601
v 10.322723 17.716200 -2.791801
v 10.094423 17.814501 -3.704801
v 12.346223 17.963800 -3.214801
v 12.513724 17.879101 -2.529101
v 13.647723 18.109900 -2.782801
v 14.184424 18.087700 -2.300102
v 14.238524 18.081800 -1.657601
v 12.602223 17.869499 -1.607701
v 9.891724 18.057199 -3.974401
v 12.073524 18.477900 -3.384601
v 12.197524 18.180000 -3.417202
v 13.950124 18.536600 -2.772501
v 14.027724 18.291201 -2.789301
v 9.689123 19.294300 -2.893502
v 12.121924 19.130600 -1.846201
v 12.048823 19.138500 -2.602501
v 13.971124 18.920000 -1.794201
v 13.925523 18.924900 -2.337101
v 11.958524 19.063801 -3.168201
v 13.388324 18.923700 -2.763301
v 7.587323 19.305300 -3.067001
v 7.800223 17.991199 -4.325902
v 8.013224 17.725700 -4.016401
v 8.253223 17.618999 -2.967301
v 7.489324 18.832001 0.643799
v 14.615823 18.736200 -1.755301
v 14.578523 18.740200 -2.240402
v 14.666623 18.546400 -1.723701
v 14.627624 18.550600 -2.230501
v 13.891623 18.761200 -2.764201
v 14.733724 18.317900 -1.693801
v 14.692624 18.322300 -2.225502
v 14.578523 18.740200 -1.270201
v 13.925523 18.924900 -1.248201
v 14.627624 18.550600 -1.216901
v 14.692624 18.322300 -1.162001
v 14.027724 18.291201 -0.588201
v 13.647723 18.109900 -0.539301
v 14.184424 18.087700 -1.018201
v 12.346223 17.963800 -0.054701
v 12.197524 18.180000 0.069899
v 11.980323 18.808100 -3.365301
v 12.513824 17.879101 -0.698401
v 12.048823 19.138500 -1.077501
vn 0.4213 -0.8996 -0.1154
vn 0.2141 -0.8060 -0.5519
vn 0.1255 -0.8505 -0.5108
vn 0.2543 -0.9625 -0.0945
vn 0.2546 -0.9671 -0.0002
vn 0.4396 -0.8982 -0.0013
vn 0.1477 -0.7944 0.5891
vn 0.1292 -0.7884 0.6015
vn -0.0876 -0.0412 0.9953
vn -0.2420 -0.0670 0.9680
vn -0.1246 0.3596 0.9248
vn -0.2492 0.2428 0.9375
vn 0.0099 0.8713 -0.4906
vn -0.0930 0.3608 -0.9280
vn -0.1715 0.4034 -0.8988
vn 0.0123 0.8926 -0.4507
vn -0.1210 0.0452 -0.9916
vn -0.2553 -0.0211 -0.9666
vn -0.1206 0.6049 0.7871
vn -0.0594 0.5889 0.8060
vn 0.0298 0.9134 0.4059
vn 0.0409 0.9209 0.3878
vn 0.0531 0.6340 0.7715
vn 0.0533 0.4707 0.8807
vn 0.0860 0.4693 0.8789
vn 0.0722 0.6304 0.7729
vn 0.0336 0.9282 0.3707
vn 0.0448 0.9305 0.3636
vn 0.0467 -0.9971 -0.0606
vn 0.0613 -0.9097 -0.4106
vn 0.0564 -0.9100 -0.4108
vn 0.0252 -0.9980 -0.0579
vn 0.0222 -0.9998 -0.0000
vn 0.0454 -0.9990 -0.0000
vn 0.0596 0.1264 -0.9902
vn 0.0754 -0.3208 -0.9441
vn -0.0580 -0.3158 -0.9470
vn 0.0984 0.1377 -0.9856
vn 0.0998 -0.3192 -0.9424
vn 0.0923 0.9957 -0.0000
vn 0.0315 0.9995 -0.0000
vn 0.0340 0.9981 -0.0523
vn 0.0880 0.9941 -0.0633
vn 0.0041 0.9987 -0.0503
vn 0.0009 1.0000 -0.0000
vn 0.0439 0.8925 -0.4490
vn 0.0499 0.8954 -0.4425
vn -0.1465 -0.3141 -0.9380
vn 0.4171 -0.9011 0.1182
vn 0.2526 -0.9626 0.0983
vn 0.1253 0.9898 0.0674
vn 0.0900 0.9941 0.0608
vn 0.1401 0.9901 -0.0000
vn 0.1227 0.9900 -0.0690
vn 0.0047 0.9988 0.0487
vn 0.0357 0.9173 0.3966
vn 0.0001 0.9986 0.0533
vn 0.0866 0.9043 0.4180
vn 0.0410 0.9972 0.0626
vn 0.0370 0.9993 0.0001
vn -0.0040 1.0000 0.0001
vn 0.0376 -0.9993 0.0002
vn 0.0439 -0.9968 0.0667
vn 0.0255 -0.9979 0.0596
vn 0.0631 -0.9980 0.0004
vn 0.0725 -0.9943 0.0781
vn 0.1692 -0.7952 0.5823
vn 0.1076 -0.8314 0.5452
vn 0.0710 -0.8509 0.5205
vn 0.1144 0.3877 -0.9146
vn 0.0898 0.4114 -0.9070
vn 0.0517 0.8763 -0.4789
vn 0.1073 0.8593 -0.5001
vn 0.1757 0.3697 -0.9124
vn 0.1870 0.1599 -0.9693
vn 0.1321 0.1455 -0.9805
vn 0.1398 -0.0107 0.9901
vn 0.1059 -0.0276 0.9940
vn 0.2034 0.0315 0.9786
vn 0.1649 0.4455 0.8800
vn 0.1163 0.4569 0.8819
vn 0.0752 -0.0332 0.9966
vn 0.0702 -0.8523 0.5184
vn 0.0600 0.4125 -0.9090
vn 0.0469 -0.9969 0.0624
vn 0.0329 0.9982 0.0502
vn 0.1470 0.5731 0.8062
vn 0.2292 0.4333 0.8716
vn 0.2138 0.5781 0.7875
vn 0.4285 0.4086 0.8059
vn 0.3582 0.6774 0.6425
vn 0.1783 0.9119 0.3696
vn 0.1520 0.8977 0.4137
vn 0.0699 -0.9949 -0.0728
vn 0.1403 -0.8757 -0.4620
vn 0.2203 -0.8269 -0.5174
vn 0.1161 -0.9891 -0.0901
vn 0.2576 -0.8362 -0.4842
vn 0.3235 -0.9146 -0.2425
vn 0.2895 -0.9572 0.0004
vn 0.1043 -0.9945 0.0003
vn 0.2001 -0.2588 -0.9450
vn 0.2587 0.1700 -0.9509
vn 0.2777 -0.1974 -0.9402
vn 0.4649 0.1755 -0.8678
vn 0.5174 -0.3260 -0.7912
vn 0.0432 0.9967 -0.0688
vn 0.0908 0.9959 -0.0000
vn 0.0993 0.9923 -0.0733
vn 0.1984 0.9801 -0.0003
vn 0.2334 0.9556 -0.1797
vn 0.1787 0.8512 -0.4935
vn 0.2103 0.8718 -0.4425
vn 0.0021 0.9984 -0.0570
vn 0.1362 -0.3003 -0.9441
vn 0.0861 -0.8998 -0.4277
vn 0.0422 -0.9971 -0.0634
vn 0.0934 0.6001 0.7945
vn 0.7259 0.6877 -0.0042
vn 0.6970 0.6085 -0.3793
vn 0.9627 0.2705 0.0005
vn 0.8611 0.2182 -0.4592
vn 0.4062 0.5501 -0.7297
vn 0.9168 -0.3995 0.0020
vn 0.8503 -0.3569 -0.3869
vn 0.6724 0.6691 0.3164
vn 0.2152 0.9646 0.1524
vn 0.8300 0.3414 0.4412
vn 0.8566 -0.3019 0.4184
vn 0.5396 -0.1860 0.8211
vn 0.2936 -0.7707 0.5656
vn 0.3522 -0.8930 0.2801
vn 0.2641 -0.7363 0.6229
vn 0.2806 0.0736 0.9570
vn 0.2477 0.3814 -0.8906
vn 0.1218 -0.9878 0.0969
vn 0.0969 0.9929 0.0683
vt 0.701300 0.710200
vt 0.718200 0.694600
vt 0.727100 0.706200
vt 0.711100 0.720000
vt 0.690200 0.741600
vt 0.680100 0.731000
vt 0.633100 0.772600
vt 0.650200 0.786000
vt 0.643900 0.794000
vt 0.625900 0.788300
vt 0.638000 0.804700
vt 0.620000 0.805400
vt 0.659300 0.909100
vt 0.662800 0.915000
vt 0.652600 0.918200
vt 0.647800 0.912300
vt 0.738300 0.697800
vt 0.667000 0.920100
vt 0.658100 0.924000
vt 0.738500 0.689500
vt 0.615900 0.820700
vt 0.634400 0.816500
vt 0.633800 0.829900
vt 0.615600 0.836200
vt 0.669600 0.818400
vt 0.673000 0.809800
vt 0.707500 0.817300
vt 0.704500 0.823900
vt 0.703500 0.832100
vt 0.668500 0.828900
vt 0.728500 0.741900
vt 0.739500 0.728200
vt 0.757300 0.751600
vt 0.749300 0.764200
vt 0.737800 0.780500
vt 0.712700 0.761300
vt 0.746600 0.717800
vt 0.687800 0.911700
vt 0.743000 0.722400
vt 0.733100 0.701300
vt 0.714500 0.903000
vt 0.762600 0.741300
vt 0.759700 0.746000
vt 0.648900 0.873900
vt 0.676800 0.867200
vt 0.679700 0.886600
vt 0.654900 0.894800
vt 0.708900 0.879700
vt 0.707900 0.863100
vt 0.709600 0.892100
vt 0.681800 0.900500
vt 0.729500 0.690900
vt 0.655600 0.752600
vt 0.667100 0.765000
vt 0.624600 0.857100
vt 0.640000 0.850900
vt 0.635100 0.878700
vt 0.642500 0.898600
vt 0.705200 0.846100
vt 0.730000 0.835800
vt 0.731500 0.846900
vt 0.753100 0.839200
vt 0.754800 0.847600
vt 0.757000 0.858200
vt 0.733600 0.860800
vt 0.758300 0.795700
vt 0.747900 0.808000
vt 0.725100 0.796300
vt 0.775800 0.809300
vt 0.767300 0.818100
vt 0.760800 0.824000
vt 0.740000 0.816500
vt 0.715500 0.808000
vt 0.735700 0.890800
vt 0.711300 0.898000
vt 0.734100 0.885300
vt 0.757800 0.877900
vt 0.759500 0.882600
vt 0.793200 0.782200
vt 0.762800 0.886700
vt 0.738900 0.895700
vt 0.778400 0.761500
vt 0.736300 0.819100
vt 0.711100 0.811600
vt 0.757900 0.825900
vt 0.755600 0.829600
vt 0.733400 0.823700
vt 0.677500 0.802200
vt 0.682900 0.797300
vt 0.684200 0.906700
vt 0.695500 0.781500
vt 0.671900 0.846600
vt 0.753700 0.834000
vt 0.777100 0.835100
vt 0.776000 0.838100
vt 0.791700 0.838100
vt 0.791400 0.839800
vt 0.788000 0.841400
vt 0.776000 0.841400
vt 0.783400 0.799000
vt 0.788800 0.790200
vt 0.801100 0.811300
vt 0.796800 0.816700
vt 0.804800 0.824100
vt 0.803600 0.830400
vt 0.799300 0.833200
vt 0.790900 0.822800
vt 0.790500 0.785900
vt 0.805900 0.806400
vt 0.787300 0.872800
vt 0.803100 0.808500
vt 0.810400 0.826800
vt 0.803100 0.856700
vt 0.807700 0.827200
vt 0.757600 0.869200
vt 0.780200 0.853600
vt 0.781500 0.861100
vt 0.795900 0.846900
vt 0.798000 0.851500
vt 0.782400 0.867100
vt 0.794900 0.857600
vt 0.734000 0.874700
vt 0.775800 0.765900
vt 0.774000 0.771100
vt 0.767600 0.782100
vt 0.730800 0.829200
vt 0.800900 0.842500
vt 0.803300 0.847100
vt 0.802300 0.840300
vt 0.805700 0.846400
vt 0.807700 0.836300
vt 0.800400 0.855700
vt 0.801300 0.837500
vt 0.805300 0.835000
vt 0.797100 0.840400
vt 0.793000 0.843200
vt 0.797200 0.839000
vt 0.797300 0.837400
vt 0.792200 0.836400
vt 0.790200 0.834500
vt 0.795000 0.834800
vt 0.780300 0.831100
vt 0.778400 0.832500
vt 0.784200 0.870300
vt 0.784900 0.827600
vt 0.777800 0.846700
s 1
usemtl Linux_Penguin.001
f 1/1/1 2/2/2 3/3/3
f 3/3/3 4/4/4 1/1/1
f 4/4/4 5/5/5 6/6/6
f 6/6/6 1/1/1 4/4/4
f 7/7/7 8/8/8 9/9/9
f 9/9/9 10/10/10 7/7/7
f 11/11/11 12/12/12 10/10/10
f 10/10/10 9/9/9 11/11/11
f 13/13/13 14/14/14 15/15/15
f 15/15/15 16/16/16 13/13/13
f 15/15/15 14/14/14 17/18/17
f 17/18/17 18/19/18 15/15/15
f 19/21/19 12/12/12 11/11/11
f 11/11/11 20/22/20 19/21/19
f 21/23/21 22/24/22 19/21/19
f 19/21/19 20/22/20 21/23/21
f 23/25/23 20/22/20 11/11/11
f 11/11/11 24/26/24 23/25/23
f 24/26/24 25/27/25 26/28/26
f 26/28/26 23/25/23 24/26/24
f 26/28/26 27/29/27 28/30/28
f 28/30/28 23/25/23 26/28/26
f 23/25/23 28/30/28 21/23/21
f 21/23/21 20/22/20 23/25/23
f 29/31/29 4/4/4 3/3/3
f 3/3/3 30/32/30 29/31/29
f 31/33/31 32/34/32 29/31/29
f 29/31/29 30/32/30 31/33/31
f 32/34/32 33/35/33 34/36/34
f 34/36/34 29/31/29 32/34/32
f 29/31/29 34/36/34 5/5/5
f 5/5/5 4/4/4 29/31/29
f 17/17/17 35/37/35 36/39/36
f 36/39/36 37/40/37 17/17/17
f 38/42/38 39/43/39 36/39/36
f 36/39/36 35/37/35 38/42/38
f 31/33/31 30/32/30 36/39/36
f 36/39/36 39/43/39 31/33/31
f 36/39/36 30/32/30 3/3/3
f 3/3/3 37/40/37 36/39/36
f 40/44/40 41/45/41 42/46/42
f 42/46/42 43/47/43 40/44/40
f 44/48/44 42/46/42 41/45/41
f 41/45/41 45/49/45 44/48/44
f 46/50/46 47/51/47 42/46/42
f 42/46/42 44/48/44 46/50/46
f 47/51/47 13/13/13 43/47/43
f 43/47/43 42/46/42 47/51/47
f 48/52/48 18/20/18 17/17/17
f 17/17/17 37/40/37 48/52/48
f 3/3/3 2/2/2 48/52/48
f 48/52/48 37/40/37 3/3/3
f 49/53/49 6/6/6 5/5/5
f 5/5/5 50/54/50 49/53/49
f 8/8/8 7/7/7 49/53/49
f 49/53/49 50/54/50 8/8/8
f 51/55/51 22/24/22 21/23/21
f 21/23/21 52/56/52 51/55/51
f 52/56/52 40/44/40 53/57/53
f 53/57/53 51/55/51 52/56/52
f 53/57/53 40/44/40 43/47/43
f 43/47/43 54/58/54 53/57/53
f 54/58/54 43/47/43 13/13/13
f 13/13/13 16/16/16 54/58/54
f 55/59/55 27/29/27 56/60/56
f 56/60/56 57/61/57 55/59/55
f 58/62/58 59/63/59 57/61/57
f 57/61/57 56/60/56 58/62/58
f 57/61/57 59/63/59 60/64/60
f 60/64/60 61/65/61 57/61/57
f 55/59/55 57/61/57 61/65/61
f 61/65/61 45/49/45 55/59/55
f 33/35/33 62/66/62 63/67/63
f 63/67/63 64/68/64 33/35/33
f 62/66/62 65/69/65 66/70/66
f 66/70/66 63/67/63 62/66/62
f 63/67/63 66/70/66 67/71/67
f 67/71/67 68/72/68 63/67/63
f 63/67/63 68/72/68 69/73/69
f 69/73/69 64/68/64 63/67/63
f 70/74/70 71/75/71 46/50/46
f 46/50/46 72/76/72 70/74/70
f 73/77/73 74/78/74 70/74/70
f 70/74/70 72/76/72 73/77/73
f 75/80/75 76/81/76 70/74/70
f 70/74/70 74/78/74 75/80/75
f 70/74/70 76/81/76 38/41/38
f 38/41/38 71/75/71 70/74/70
f 77/83/77 78/84/78 69/73/69
f 69/73/69 68/72/68 77/83/77
f 77/83/77 68/72/68 67/71/67
f 67/71/67 79/85/79 77/83/77
f 77/83/77 79/85/79 80/86/80
f 80/86/80 81/87/81 77/83/77
f 81/87/81 25/27/25 78/84/78
f 78/84/78 77/83/77 81/87/81
f 82/88/82 9/9/9 8/8/8
f 8/8/8 83/89/83 82/88/82
f 69/73/69 78/84/78 82/88/82
f 82/88/82 83/89/83 69/73/69
f 82/88/82 78/84/78 25/27/25
f 25/27/25 24/26/24 82/88/82
f 82/88/82 24/26/24 11/11/11
f 11/11/11 9/9/9 82/88/82
f 13/13/13 47/51/47 84/90/84
f 84/90/84 14/14/14 13/13/13
f 84/90/84 47/51/47 46/50/46
f 46/50/46 71/75/71 84/90/84
f 38/41/38 35/38/35 84/90/84
f 84/90/84 71/75/71 38/41/38
f 35/38/35 17/18/17 14/14/14
f 14/14/14 84/90/84 35/38/35
f 85/91/85 50/54/50 5/5/5
f 5/5/5 34/36/34 85/91/85
f 34/36/34 33/35/33 64/68/64
f 64/68/64 85/91/85 34/36/34
f 64/68/64 69/73/69 83/89/83
f 83/89/83 85/91/85 64/68/64
f 85/91/85 83/89/83 8/8/8
f 8/8/8 50/54/50 85/91/85
f 86/92/86 52/56/52 21/23/21
f 21/23/21 28/30/28 86/92/86
f 86/92/86 28/30/28 27/29/27
f 27/29/27 55/59/55 86/92/86
f 41/45/41 86/92/86 55/59/55
f 55/59/55 45/49/45 41/45/41
f 40/44/40 52/56/52 86/92/86
f 86/92/86 41/45/41 40/44/40
f 87/93/87 80/86/80 88/94/88
f 88/94/88 89/95/89 87/93/87
f 89/95/89 88/94/88 90/96/90
f 90/96/90 91/97/91 89/95/89
f 92/98/92 93/99/93 89/95/89
f 89/95/89 91/97/91 92/98/92
f 89/95/89 93/99/93 58/62/58
f 58/62/58 87/93/87 89/95/89
f 94/100/94 95/101/95 96/102/96
f 96/102/96 97/103/97 94/100/94
f 97/103/97 96/102/96 98/104/98
f 98/104/98 99/105/99 97/103/97
f 97/103/97 99/105/99 100/106/100
f 100/106/100 101/107/101 97/103/97
f 97/103/97 101/107/101 65/69/65
f 65/69/65 94/100/94 97/103/97
f 102/108/102 75/79/75 103/109/103
f 103/109/103 104/111/104 102/108/102
f 104/111/104 103/109/103 105/112/105
f 105/112/105 106/114/106 104/111/104
f 104/111/104 106/114/106 98/104/98
f 98/104/98 96/102/96 104/111/104
f 104/111/104 96/102/96 95/101/95
f 95/101/95 102/108/102 104/111/104
f 107/115/107 60/64/60 108/116/108
f 108/116/108 109/117/109 107/115/107
f 108/116/108 110/118/110 111/119/111
f 111/119/111 109/117/109 108/116/108
f 112/120/112 109/117/109 111/119/111
f 111/119/111 113/121/113 112/120/112
f 107/115/107 109/117/109 112/120/112
f 112/120/112 73/77/73 107/115/107
f 61/65/61 114/122/114 44/48/44
f 44/48/44 45/49/45 61/65/61
f 61/65/61 60/64/60 107/115/107
f 107/115/107 114/122/114 61/65/61
f 73/77/73 72/76/72 114/122/114
f 114/122/114 107/115/107 73/77/73
f 114/122/114 72/76/72 46/50/46
f 46/50/46 44/48/44 114/122/114
f 115/123/115 39/43/39 38/42/38
f 38/42/38 76/82/76 115/123/115
f 75/79/75 102/108/102 115/123/115
f 115/123/115 76/82/76 75/79/75
f 95/101/95 116/124/116 115/123/115
f 115/123/115 102/108/102 95/101/95
f 115/123/115 116/124/116 31/33/31
f 31/33/31 39/43/39 115/123/115
f 32/34/32 31/33/31 116/124/116
f 116/124/116 117/125/117 32/34/32
f 117/125/117 116/124/116 95/101/95
f 95/101/95 94/100/94 117/125/117
f 117/125/117 94/100/94 65/69/65
f 65/69/65 62/66/62 117/125/117
f 33/35/33 32/34/32 117/125/117
f 117/125/117 62/66/62 33/35/33
f 118/126/118 26/28/26 25/27/25
f 25/27/25 81/87/81 118/126/118
f 118/126/118 81/87/81 80/86/80
f 80/86/80 87/93/87 118/126/118
f 58/62/58 56/60/56 118/126/118
f 118/126/118 87/93/87 58/62/58
f 118/126/118 56/60/56 27/29/27
f 27/29/27 26/28/26 118/126/118
f 110/118/110 119/127/119 120/128/120
f 120/128/120 111/119/111 110/118/110
f 120/128/120 119/127/119 121/129/121
f 121/129/121 122/130/122 120/128/120
f 120/128/120 122/130/122 105/113/105
f 105/113/105 123/132/123 120/128/120
f 120/128/120 123/132/123 113/121/113
f 113/121/113 111/119/111 120/128/120
f 121/129/121 124/133/124 125/134/125
f 125/134/125 122/131/122 121/129/121
f 124/133/124 100/106/100 99/105/99
f 99/105/99 125/134/125 124/133/124
f 98/104/98 106/114/106 125/134/125
f 125/134/125 99/105/99 98/104/98
f 125/134/125 106/114/106 105/112/105
f 105/112/105 122/131/122 125/134/125
f 126/135/126 119/127/119 110/118/110
f 110/118/110 127/136/127 126/135/126
f 92/98/92 91/97/91 126/135/126
f 126/135/126 127/136/127 92/98/92
f 126/135/126 91/97/91 90/96/90
f 90/96/90 128/137/128 126/135/126
f 121/129/121 119/127/119 126/135/126
f 126/135/126 128/137/128 121/129/121
f 129/138/129 124/133/124 121/129/121
f 121/129/121 128/137/128 129/138/129
f 90/96/90 130/139/130 129/138/129
f 129/138/129 128/137/128 90/96/90
f 129/138/129 130/139/130 131/140/131
f 131/140/131 132/141/132 129/138/129
f 129/138/129 132/141/132 100/106/100
f 100/106/100 124/133/124 129/138/129
f 133/142/133 134/143/134 79/85/79
f 79/85/79 67/71/67 133/142/133
f 134/143/134 133/142/133 131/140/131
f 131/140/131 130/139/130 134/143/134
f 134/143/134 130/139/130 90/96/90
f 90/96/90 88/94/88 134/143/134
f 134/143/134 88/94/88 80/86/80
f 80/86/80 79/85/79 134/143/134
f 74/78/74 73/77/73 112/120/112
f 112/120/112 135/144/135 74/78/74
f 113/121/113 123/132/123 135/144/135
f 135/144/135 112/120/112 113/121/113
f 123/132/123 105/113/105 103/110/103
f 103/110/103 135/144/135 123/132/123
f 103/110/103 75/80/75 74/78/74
f 74/78/74 135/144/135 103/110/103
f 66/70/66 65/69/65 101/107/101
f 101/107/101 136/145/136 66/70/66
f 136/145/136 101/107/101 100/106/100
f 100/106/100 132/141/132 136/145/136
f 136/145/136 132/141/132 131/140/131
f 131/140/131 133/142/133 136/145/136
f 133/142/133 67/71/67 66/70/66
f 66/70/66 136/145/136 133/142/133
f 58/62/58 93/99/93 137/146/137
f 137/146/137 59/63/59 58/62/58
f 92/98/92 127/136/127 137/146/137
f 137/146/137 93/99/93 92/98/92
f 137/146/137 127/136/127 110/118/110
f 110/118/110 108/116/108 137/146/137
f 108/116/108 60/64/60 59/63/59
f 59/63/59 137/146/137 108/116/108
